<svg width="20" height="20" viewBox="0 0 20 20" xmlns="http://www.w3.org/2000/svg">
<path fill-rule="evenodd" clip-rule="evenodd" d="M11.4452 6.47164C11.1118 6.13498 11.1118 5.58915 11.4452 5.25249C11.7785 4.91584 12.319 4.91584 12.6524 5.25249L16.75 9.39043C16.8423 9.48363 16.909 9.59287 16.9502 9.70926C16.9819 9.79886 16.9985 9.89269 16.9999 9.98672C17 9.99118 17 9.99564 17 10.0001C17 10.1375 16.9682 10.2674 16.9116 10.3826C16.8884 10.4298 16.8607 10.4753 16.8285 10.5184C16.8023 10.5536 16.7735 10.5866 16.7423 10.6173L12.6524 14.7475C12.319 15.0842 11.7785 15.0842 11.4452 14.7475C11.1118 14.4108 11.1118 13.865 11.4452 13.5284L14.0853 10.8622H3.85366C3.3822 10.8622 3 10.4762 3 10.0001C3 9.52399 3.3822 9.13803 3.85366 9.13803H14.0855L11.4452 6.47164Z" fill="#0047bb"/>
</svg>
